:SAMPLES-PER-SECOND 30
:FULLY-SPECIFIED
:DEGREES
245
root  34.80535192 36.56329958 -14.32089768 9.040327072 -3.120537996 3.693592072
lowerback  -7.857439995 -0.147818476 -1.548550487
upperback  -3.804480076 0.4922730029 -4.542841911
thorax  0.5020239949 0.4462690055 -3.771850109
lowerneck  -7.423709869 -14.39620018 -9.879130363
upperneck  13.23760033 -20.02999878 12.81599998
head  7.59732008 -9.066309929 3.612710238
lclavicle  0 -4.497500157e-015 -2.743230041e-014
lhumerus  -47.45059967 30.94499969 61.89519882
lradius  -0.1213118359 -6.507048965e-006 29.57439995
lwrist  3.192251654e-007 -3.790274832e-007 -29.34620094
lhand  -4.411482276e-031 -36.82789993 -10.42749977
lfingers  90 7.125020027 -90
lthumb  94.73009732 -25.27043971 100.9695475
rclavicle  0 -4.497500157e-015 -2.743230041e-014
rhumerus  -19.04229927 -31.92040253 -28.83469963
rradius  -5.16745672e-007 2.214343908e-008 80.16259766
rwrist  0.0003490542294 -0.002273720223 -178.576004
rhand  -1.7689683e-031 3.555949926 -6.662799835
rfingers  -90 -7.125020027 -90
rthumb  -84.83104712 -9.23476954 -60.59055663
rfemur  -10.54233265 15.14581394 12.91511059
rtibia  -0.5199972391 -0.900534153 18.48894501
rfoot  1.293048382 -21.04113579 -36.17137146
rtoes  3.781161443 19.65370653 -101.1169754
lfemur  -4.155783176 -17.17390633 -22.27126503
ltibia  6.083198071 -0.4712604284 8.761989594
lfoot  0.4753134251 -21.76504326 36.22182465
ltoes  -8.623854512 -18.11428585 -116.002838
246
root  34.80530086 36.56195092 -14.32455468 8.994826317 -3.112356901 3.672202587
lowerback  -7.865989685 -0.1476601064 -1.538250208
upperback  -3.811460018 0.4956519902 -4.541453362
thorax  0.4997799993 0.4454677701 -3.780879974
lowerneck  -7.443620205 -14.38169956 -9.864580154
upperneck  13.18659973 -20.00100136 12.77420044
head  7.574399948 -9.058569908 3.601429701
lclavicle  0 -4.497500157e-015 -2.743230041e-014
lhumerus  -47.46649933 30.97509956 61.88000107
lradius  -0.1211852059 -6.507048965e-006 29.56619835
lwrist  3.192251654e-007 -3.790274832e-007 -29.38839912
lhand  -4.41163801e-031 -36.83060074 -10.43150043
lfingers  90 7.125020027 -90
lthumb  94.73217371 -25.27425092 100.9727588
rclavicle  0 -4.497500157e-015 -2.743230041e-014
rhumerus  -20.47159958 -31.62399864 -28.71829987
rradius  -5.16745672e-007 2.214343908e-008 81.41120148
rwrist  0.0003490542294 -0.002273720223 -179.2079926
rhand  -1.769033692e-031 3.589869976 -6.454050064
rfingers  -90 -7.125020027 -90
rthumb  -84.71902335 -9.418458689 -60.54056275
rfemur  -10.51118565 15.16954422 12.94759178
rtibia  -0.52006495 -0.8524872661 18.50992966
rfoot  1.292935967 -20.98658943 -36.1724472
rtoes  3.774924895 19.65485963 -101.0984333
lfemur  -4.131399632 -17.1848278 -22.25034523
ltibia  6.05224371 -0.4748220146 8.800690651
lfoot  0.4544644356 -21.77427673 36.20781708
ltoes  -8.648619581 -18.10278367 -116.0825151
247
root  34.8045259 36.5604701 -14.32827927 8.950755119 -3.087749481 3.669731855
lowerback  -7.861633301 -0.1451698244 -1.500204444
upperback  -3.825759888 0.4915100038 -4.537099838
thorax  0.4825600088 0.4441869855 -3.807780027
lowerneck  -7.441800117 -14.36159992 -9.841640472
upperneck  13.1342001 -19.96619797 12.73550034
head  7.546060085 -9.04804039 3.592530012
lclavicle  0 -4.497500157e-015 -2.743230041e-014
lhumerus  -47.48799896 30.96430016 61.88270187
lradius  -0.1206035614 -6.507048965e-006 29.5739994
lwrist  3.192251654e-007 -3.790274832e-007 -29.29560089
lhand  -4.41239938e-031 -36.84379959 -10.32059956
lfingers  90 7.125020027 -90
lthumb  94.71496133 -25.16491572 100.9769476
rclavicle  0 -4.497500157e-015 -2.743230041e-014
rhumerus  -21.82500076 -31.38460159 -28.65189934
rradius  -5.16745672e-007 2.214343908e-008 82.53980255
rwrist  0.0003490542294 -0.002273720223 -179.6730042
rhand  -0 3.52218008 -6.354489803
rfingers  -90 -7.125020027 -90
rthumb  -84.68567188 -9.501512572 -60.59862786
rfemur  -10.48744583 15.20049 12.96895027
rtibia  -0.5193345547 -0.823079586 18.55467033
rfoot  1.261816621 -20.97194862 -36.22923279
rtoes  3.784653718 19.65305997 -101.1273589
lfemur  -3.966425657 -17.18128014 -22.30994987
ltibia  6.143605232 -0.4852667153 8.609807014
lfoot  0.4226436317 -21.67599678 36.19161987
ltoes  -8.662319993 -18.09640273 -116.1266147
248
root  34.80369688 36.55881206 -14.33210448 8.902766228 -3.061834097 3.667323351
lowerback  -7.876608849 -0.1424803883 -1.50327909
upperback  -3.836699963 0.4808549881 -4.525800228
thorax  0.4788269997 0.442476511 -3.794909954
lowerneck  -7.422460079 -14.33689976 -9.853919983
upperneck  13.05920029 -19.92500114 12.73169994
head  7.514259815 -9.035220146 3.601599932
lclavicle  0 -4.497500157e-015 -2.743230041e-014
lhumerus  -47.51570129 30.96369934 61.88180161
lradius  -0.1198407561 -6.507048965e-006 29.59270096
lwrist  3.192251654e-007 -3.790274832e-007 -29.20129967
lhand  -4.415294033e-031 -36.89390182 -10.32139969
lfingers  90 7.125020027 -90
lthumb  94.73826947 -25.16407413 101.0304618
rclavicle  0 -4.497500157e-015 -2.743230041e-014
rhumerus  -23.13730049 -31.08670235 -28.60339928
rradius  -5.16745672e-007 2.214343908e-008 83.66750336
rwrist  0.0003490542294 -0.002273720223 -179.9880066
rhand  -1.768815779e-031 3.475539923 -6.282149792
rfingers  -90 -7.125020027 -90
rthumb  -84.66092541 -9.562019113 -60.63822645
rfemur  -10.44501114 15.23355865 12.98790359
rtibia  -0.518025279 -0.8019533157 18.57691002
rfoot  1.240060687 -20.96762085 -36.28419113
rtoes  3.790391064 19.6519964 -101.1444184
lfemur  -3.853637695 -17.21673393 -22.34719276
ltibia  6.189446449 -0.5019902587 8.506950378
lfoot  0.3966810107 -21.601408 36.19543457
ltoes  -8.672849986 -18.0914898 -116.1605194
